# xmcd
#
# Track frame offsets: 
#        150
#        14490
#        22608
#        31113
#        41120
#        50163
#        64183
#        75713
#        87013
#        100463
#        114138
#        124143
#        136130
#        148560
#        158988
#
# Disc length: 2307 seconds
#
# Revision: 1
# Processed by: cddbd v1.5.1PL2 Copyright (c) Steve Scherf et al.
# Submitted via: ExactAudioCopy v0.95b3
#
DISCID=bd09010f
DTITLE=Various Artist - Choro no Quintal
DYEAR=1900
DGENRE=Choro
TTITLE0=Waldir Azevedo - Brasileirinho
TTITLE1=Ernesto Nazareth - Apanhei-te de Cavaquinho
TTITLE2=Zequinha de Abreu - Tico-Tico no Fuba
TTITLE3=Waldir Azevedo - Delicado
TTITLE4=Andre Victor Correa - Andre de Sapato Novo
TTITLE5=Jacob Bittencourt - Doce de Coco
TTITLE6=Louro e Joao de Barro - Urubu Malandro
TTITLE7=Waldir Azevendo - Pedacinho do Ceu
TTITLE8=Ernesto Nazareth - Brejeiro
TTITLE9=Pixinguinha e Joao de Barro - Carinhoso
TTITLE10=Joaquim Antonio da Silva Calado - Flor Amorosa
TTITLE11=Pixinguinha - Lamento
TTITLE12=Ernesto Nazareth e Hubaldo - Odeon
TTITLE13=Agostinho e Talmo - Feito na Lapa
TTITLE14=Agostinho e Talmo - Vendo, Compro e Troco
EXTD=Choros
EXTT0=
EXTT1=
EXTT2=
EXTT3=
EXTT4=
EXTT5=
EXTT6=
EXTT7=
EXTT8=
EXTT9=
EXTT10=
EXTT11=
EXTT12=
EXTT13=
EXTT14=
PLAYORDER=
